<?xml version="1.0" encoding="UTF-8" standalone="no"?>
<!DOCTYPE svg PUBLIC "-//W3C//DTD SVG 1.1//EN"
 "http://www.w3.org/Graphics/SVG/1.1/DTD/svg11.dtd">
<!-- Generated by graphviz version 2.43.0 (0)
 -->
<!-- Title: snakemake_dag Pages: 1 -->
<svg width="1466pt" height="332pt"
 viewBox="0.00 0.00 1465.50 332.00" xmlns="http://www.w3.org/2000/svg" xmlns:xlink="http://www.w3.org/1999/xlink">
<g id="graph0" class="graph" transform="scale(1 1) rotate(0) translate(4 328)">
<title>snakemake_dag</title>
<polygon fill="white" stroke="transparent" points="-4,4 -4,-328 1461.5,-328 1461.5,4 -4,4"/>
<!-- 0 -->
<g id="node1" class="node">
<title>0</title>
<path fill="none" stroke="#d8bc56" stroke-width="2" d="M709,-36C709,-36 662,-36 662,-36 656,-36 650,-30 650,-24 650,-24 650,-12 650,-12 650,-6 656,0 662,0 662,0 709,0 709,0 715,0 721,-6 721,-12 721,-12 721,-24 721,-24 721,-30 715,-36 709,-36"/>
<text text-anchor="middle" x="685.5" y="-15.5" font-family="sans" font-size="10.00">csv_results</text>
</g>
<!-- 1 -->
<g id="node2" class="node">
<title>1</title>
<path fill="none" stroke="#d6d856" stroke-width="2" d="M161,-108C161,-108 12,-108 12,-108 6,-108 0,-102 0,-96 0,-96 0,-84 0,-84 0,-78 6,-72 12,-72 12,-72 161,-72 161,-72 167,-72 173,-78 173,-84 173,-84 173,-96 173,-96 173,-102 167,-108 161,-108"/>
<text text-anchor="middle" x="86.5" y="-87.5" font-family="sans" font-size="10.00">run_logistic_regression_on_synt</text>
</g>
<!-- 1&#45;&gt;0 -->
<g id="edge1" class="edge">
<title>1&#45;&gt;0</title>
<path fill="none" stroke="grey" stroke-width="2" d="M173.18,-73.22C175.98,-72.8 178.76,-72.39 181.5,-72 349.92,-48.11 551.43,-30.07 639.97,-22.68"/>
<polygon fill="grey" stroke="grey" stroke-width="2" points="640.27,-26.16 649.95,-21.85 639.7,-19.19 640.27,-26.16"/>
</g>
<!-- 2 -->
<g id="node3" class="node">
<title>2</title>
<path fill="none" stroke="#d85656" stroke-width="2" d="M330.5,-180C330.5,-180 196.5,-180 196.5,-180 190.5,-180 184.5,-174 184.5,-168 184.5,-168 184.5,-156 184.5,-156 184.5,-150 190.5,-144 196.5,-144 196.5,-144 330.5,-144 330.5,-144 336.5,-144 342.5,-150 342.5,-156 342.5,-156 342.5,-168 342.5,-168 342.5,-174 336.5,-180 330.5,-180"/>
<text text-anchor="middle" x="263.5" y="-159.5" font-family="sans" font-size="10.00">generate_synthetic_datasets</text>
</g>
<!-- 2&#45;&gt;1 -->
<g id="edge8" class="edge">
<title>2&#45;&gt;1</title>
<path fill="none" stroke="grey" stroke-width="2" d="M220.2,-143.88C195.79,-134.22 165.1,-122.09 139.29,-111.88"/>
<polygon fill="grey" stroke="grey" stroke-width="2" points="140.24,-108.49 129.66,-108.07 137.67,-115 140.24,-108.49"/>
</g>
<!-- 5 -->
<g id="node6" class="node">
<title>5</title>
<path fill="none" stroke="#56d873" stroke-width="2" d="M324,-108C324,-108 203,-108 203,-108 197,-108 191,-102 191,-96 191,-96 191,-84 191,-84 191,-78 197,-72 203,-72 203,-72 324,-72 324,-72 330,-72 336,-78 336,-84 336,-84 336,-96 336,-96 336,-102 330,-108 324,-108"/>
<text text-anchor="middle" x="263.5" y="-87.5" font-family="sans" font-size="10.00">run_classification_on_synt</text>
</g>
<!-- 2&#45;&gt;5 -->
<g id="edge11" class="edge">
<title>2&#45;&gt;5</title>
<path fill="none" stroke="grey" stroke-width="2" d="M263.5,-143.7C263.5,-135.98 263.5,-126.71 263.5,-118.11"/>
<polygon fill="grey" stroke="grey" stroke-width="2" points="267,-118.1 263.5,-108.1 260,-118.1 267,-118.1"/>
</g>
<!-- 3 -->
<g id="node4" class="node">
<title>3</title>
<path fill="none" stroke="#56d8d8" stroke-width="2" d="M510,-252C510,-252 369,-252 369,-252 363,-252 357,-246 357,-240 357,-240 357,-228 357,-228 357,-222 363,-216 369,-216 369,-216 510,-216 510,-216 516,-216 522,-222 522,-228 522,-228 522,-240 522,-240 522,-246 516,-252 510,-252"/>
<text text-anchor="middle" x="439.5" y="-231.5" font-family="sans" font-size="10.00">create_original_napsu_models</text>
</g>
<!-- 3&#45;&gt;2 -->
<g id="edge9" class="edge">
<title>3&#45;&gt;2</title>
<path fill="none" stroke="grey" stroke-width="2" d="M396.45,-215.88C372.17,-206.22 341.66,-194.09 315.99,-183.88"/>
<polygon fill="grey" stroke="grey" stroke-width="2" points="317,-180.51 306.41,-180.07 314.41,-187.02 317,-180.51"/>
</g>
<!-- 12 -->
<g id="node13" class="node">
<title>12</title>
<path fill="none" stroke="#a7d856" stroke-width="2" d="M539,-108C539,-108 366,-108 366,-108 360,-108 354,-102 354,-96 354,-96 354,-84 354,-84 354,-78 360,-72 366,-72 366,-72 539,-72 539,-72 545,-72 551,-78 551,-84 551,-84 551,-96 551,-96 551,-102 545,-108 539,-108"/>
<text text-anchor="middle" x="452.5" y="-87.5" font-family="sans" font-size="10.00">run_ci_coverage_on_original_models</text>
</g>
<!-- 3&#45;&gt;12 -->
<g id="edge18" class="edge">
<title>3&#45;&gt;12</title>
<path fill="none" stroke="grey" stroke-width="2" d="M441.07,-215.87C443.28,-191.67 447.35,-147.21 449.99,-118.39"/>
<polygon fill="grey" stroke="grey" stroke-width="2" points="453.5,-118.47 450.93,-108.19 446.53,-117.83 453.5,-118.47"/>
</g>
<!-- 4 -->
<g id="node5" class="node">
<title>4</title>
<path fill="none" stroke="#d88d56" stroke-width="2" d="M779,-324C779,-324 654,-324 654,-324 648,-324 642,-318 642,-312 642,-312 642,-300 642,-300 642,-294 648,-288 654,-288 654,-288 779,-288 779,-288 785,-288 791,-294 791,-300 791,-300 791,-312 791,-312 791,-318 785,-324 779,-324"/>
<text text-anchor="middle" x="716.5" y="-303.5" font-family="sans" font-size="10.00">generate_original_datasets</text>
</g>
<!-- 4&#45;&gt;3 -->
<g id="edge10" class="edge">
<title>4&#45;&gt;3</title>
<path fill="none" stroke="grey" stroke-width="2" d="M649.09,-287.97C609.21,-277.89 558.54,-265.08 517.01,-254.59"/>
<polygon fill="grey" stroke="grey" stroke-width="2" points="517.76,-251.17 507.21,-252.11 516.05,-257.95 517.76,-251.17"/>
</g>
<!-- 8 -->
<g id="node9" class="node">
<title>8</title>
<path fill="none" stroke="#56a2d8" stroke-width="2" d="M794,-252C794,-252 639,-252 639,-252 633,-252 627,-246 627,-240 627,-240 627,-228 627,-228 627,-222 633,-216 639,-216 639,-216 794,-216 794,-216 800,-216 806,-222 806,-228 806,-228 806,-240 806,-240 806,-246 800,-252 794,-252"/>
<text text-anchor="middle" x="716.5" y="-231.5" font-family="sans" font-size="10.00">create_models_for_discretization</text>
</g>
<!-- 4&#45;&gt;8 -->
<g id="edge14" class="edge">
<title>4&#45;&gt;8</title>
<path fill="none" stroke="grey" stroke-width="2" d="M716.5,-287.7C716.5,-279.98 716.5,-270.71 716.5,-262.11"/>
<polygon fill="grey" stroke="grey" stroke-width="2" points="720,-262.1 716.5,-252.1 713,-262.1 720,-262.1"/>
</g>
<!-- 11 -->
<g id="node12" class="node">
<title>11</title>
<path fill="none" stroke="#568ad8" stroke-width="2" d="M1148,-252C1148,-252 949,-252 949,-252 943,-252 937,-246 937,-240 937,-240 937,-228 937,-228 937,-222 943,-216 949,-216 949,-216 1148,-216 1148,-216 1154,-216 1160,-222 1160,-228 1160,-228 1160,-240 1160,-240 1160,-246 1154,-252 1148,-252"/>
<text text-anchor="middle" x="1048.5" y="-231.5" font-family="sans" font-size="10.00">create_models_for_independence_pruning</text>
</g>
<!-- 4&#45;&gt;11 -->
<g id="edge17" class="edge">
<title>4&#45;&gt;11</title>
<path fill="none" stroke="grey" stroke-width="2" d="M791.01,-289.29C840.4,-278.88 905.51,-265.15 957.89,-254.1"/>
<polygon fill="grey" stroke="grey" stroke-width="2" points="958.79,-257.49 967.86,-252 957.35,-250.64 958.79,-257.49"/>
</g>
<!-- 5&#45;&gt;0 -->
<g id="edge2" class="edge">
<title>5&#45;&gt;0</title>
<path fill="none" stroke="grey" stroke-width="2" d="M336.32,-73.53C339.08,-73 341.81,-72.49 344.5,-72 449.68,-52.8 573.92,-34.62 639.54,-25.36"/>
<polygon fill="grey" stroke="grey" stroke-width="2" points="640.14,-28.81 649.56,-23.95 639.17,-21.88 640.14,-28.81"/>
</g>
<!-- 6 -->
<g id="node7" class="node">
<title>6</title>
<path fill="none" stroke="#d8a456" stroke-width="2" d="M789.5,-108C789.5,-108 581.5,-108 581.5,-108 575.5,-108 569.5,-102 569.5,-96 569.5,-96 569.5,-84 569.5,-84 569.5,-78 575.5,-72 581.5,-72 581.5,-72 789.5,-72 789.5,-72 795.5,-72 801.5,-78 801.5,-84 801.5,-84 801.5,-96 801.5,-96 801.5,-102 795.5,-108 789.5,-108"/>
<text text-anchor="middle" x="685.5" y="-87.5" font-family="sans" font-size="10.00">run_logistic_regression_on_discretized_data</text>
</g>
<!-- 6&#45;&gt;0 -->
<g id="edge3" class="edge">
<title>6&#45;&gt;0</title>
<path fill="none" stroke="grey" stroke-width="2" d="M685.5,-71.7C685.5,-63.98 685.5,-54.71 685.5,-46.11"/>
<polygon fill="grey" stroke="grey" stroke-width="2" points="689,-46.1 685.5,-36.1 682,-46.1 689,-46.1"/>
</g>
<!-- 7 -->
<g id="node8" class="node">
<title>7</title>
<path fill="none" stroke="#5673d8" stroke-width="2" d="M667.5,-180C667.5,-180 479.5,-180 479.5,-180 473.5,-180 467.5,-174 467.5,-168 467.5,-168 467.5,-156 467.5,-156 467.5,-150 473.5,-144 479.5,-144 479.5,-144 667.5,-144 667.5,-144 673.5,-144 679.5,-150 679.5,-156 679.5,-156 679.5,-168 679.5,-168 679.5,-174 673.5,-180 667.5,-180"/>
<text text-anchor="middle" x="573.5" y="-159.5" font-family="sans" font-size="10.00">generate_datasets_for_discretized_data</text>
</g>
<!-- 7&#45;&gt;6 -->
<g id="edge12" class="edge">
<title>7&#45;&gt;6</title>
<path fill="none" stroke="grey" stroke-width="2" d="M600.9,-143.88C615.41,-134.81 633.42,-123.55 649.09,-113.76"/>
<polygon fill="grey" stroke="grey" stroke-width="2" points="651.37,-116.46 658,-108.19 647.66,-110.52 651.37,-116.46"/>
</g>
<!-- 8&#45;&gt;7 -->
<g id="edge13" class="edge">
<title>8&#45;&gt;7</title>
<path fill="none" stroke="grey" stroke-width="2" d="M681.52,-215.88C662.3,-206.47 638.27,-194.71 617.76,-184.67"/>
<polygon fill="grey" stroke="grey" stroke-width="2" points="619.14,-181.44 608.62,-180.19 616.06,-187.73 619.14,-181.44"/>
</g>
<!-- 13 -->
<g id="node14" class="node">
<title>13</title>
<path fill="none" stroke="#bed856" stroke-width="2" d="M898,-180C898,-180 709,-180 709,-180 703,-180 697,-174 697,-168 697,-168 697,-156 697,-156 697,-150 703,-144 709,-144 709,-144 898,-144 898,-144 904,-144 910,-150 910,-156 910,-156 910,-168 910,-168 910,-174 904,-180 898,-180"/>
<text text-anchor="middle" x="803.5" y="-159.5" font-family="sans" font-size="10.00">run_ci_coverage_on_discretized_models</text>
</g>
<!-- 8&#45;&gt;13 -->
<g id="edge19" class="edge">
<title>8&#45;&gt;13</title>
<path fill="none" stroke="grey" stroke-width="2" d="M738.01,-215.7C748.96,-206.88 762.45,-196.03 774.32,-186.47"/>
<polygon fill="grey" stroke="grey" stroke-width="2" points="776.64,-189.1 782.24,-180.1 772.26,-183.65 776.64,-189.1"/>
</g>
<!-- 9 -->
<g id="node10" class="node">
<title>9</title>
<path fill="none" stroke="#56c1d8" stroke-width="2" d="M1179,-108C1179,-108 894,-108 894,-108 888,-108 882,-102 882,-96 882,-96 882,-84 882,-84 882,-78 888,-72 894,-72 894,-72 1179,-72 1179,-72 1185,-72 1191,-78 1191,-84 1191,-84 1191,-96 1191,-96 1191,-102 1185,-108 1179,-108"/>
<text text-anchor="middle" x="1036.5" y="-87.5" font-family="sans" font-size="10.00">run_logistic_regression_on_independence_pruning_datasets</text>
</g>
<!-- 9&#45;&gt;0 -->
<g id="edge4" class="edge">
<title>9&#45;&gt;0</title>
<path fill="none" stroke="grey" stroke-width="2" d="M951.08,-71.97C881.74,-58.14 786.65,-39.17 731.07,-28.09"/>
<polygon fill="grey" stroke="grey" stroke-width="2" points="731.66,-24.64 721.17,-26.11 730.29,-31.5 731.66,-24.64"/>
</g>
<!-- 10 -->
<g id="node11" class="node">
<title>10</title>
<path fill="none" stroke="#d86e56" stroke-width="2" d="M1157.5,-180C1157.5,-180 939.5,-180 939.5,-180 933.5,-180 927.5,-174 927.5,-168 927.5,-168 927.5,-156 927.5,-156 927.5,-150 933.5,-144 939.5,-144 939.5,-144 1157.5,-144 1157.5,-144 1163.5,-144 1169.5,-150 1169.5,-156 1169.5,-156 1169.5,-168 1169.5,-168 1169.5,-174 1163.5,-180 1157.5,-180"/>
<text text-anchor="middle" x="1048.5" y="-159.5" font-family="sans" font-size="10.00">generate_datasets_for_independence_pruning</text>
</g>
<!-- 10&#45;&gt;9 -->
<g id="edge15" class="edge">
<title>10&#45;&gt;9</title>
<path fill="none" stroke="grey" stroke-width="2" d="M1045.53,-143.7C1044.21,-135.98 1042.62,-126.71 1041.15,-118.11"/>
<polygon fill="grey" stroke="grey" stroke-width="2" points="1044.57,-117.37 1039.43,-108.1 1037.67,-118.55 1044.57,-117.37"/>
</g>
<!-- 11&#45;&gt;10 -->
<g id="edge16" class="edge">
<title>11&#45;&gt;10</title>
<path fill="none" stroke="grey" stroke-width="2" d="M1048.5,-215.7C1048.5,-207.98 1048.5,-198.71 1048.5,-190.11"/>
<polygon fill="grey" stroke="grey" stroke-width="2" points="1052,-190.1 1048.5,-180.1 1045,-190.1 1052,-190.1"/>
</g>
<!-- 14 -->
<g id="node15" class="node">
<title>14</title>
<path fill="none" stroke="#56d88a" stroke-width="2" d="M1445.5,-180C1445.5,-180 1199.5,-180 1199.5,-180 1193.5,-180 1187.5,-174 1187.5,-168 1187.5,-168 1187.5,-156 1187.5,-156 1187.5,-150 1193.5,-144 1199.5,-144 1199.5,-144 1445.5,-144 1445.5,-144 1451.5,-144 1457.5,-150 1457.5,-156 1457.5,-156 1457.5,-168 1457.5,-168 1457.5,-174 1451.5,-180 1445.5,-180"/>
<text text-anchor="middle" x="1322.5" y="-159.5" font-family="sans" font-size="10.00">run_ci_coverage_on_independence_pruning_models</text>
</g>
<!-- 11&#45;&gt;14 -->
<g id="edge20" class="edge">
<title>11&#45;&gt;14</title>
<path fill="none" stroke="grey" stroke-width="2" d="M1115.18,-215.97C1154.63,-205.89 1204.75,-193.08 1245.83,-182.59"/>
<polygon fill="grey" stroke="grey" stroke-width="2" points="1246.7,-185.98 1255.52,-180.11 1244.97,-179.2 1246.7,-185.98"/>
</g>
<!-- 12&#45;&gt;0 -->
<g id="edge5" class="edge">
<title>12&#45;&gt;0</title>
<path fill="none" stroke="grey" stroke-width="2" d="M509.2,-71.97C549.51,-59.85 602.93,-43.81 640.36,-32.56"/>
<polygon fill="grey" stroke="grey" stroke-width="2" points="641.42,-35.9 649.99,-29.67 639.41,-29.19 641.42,-35.9"/>
</g>
<!-- 13&#45;&gt;0 -->
<g id="edge6" class="edge">
<title>13&#45;&gt;0</title>
<path fill="none" stroke="grey" stroke-width="2" d="M810.75,-143.69C817.54,-124.51 824.7,-93.45 810.5,-72 792.94,-45.48 759.17,-32.19 731.15,-25.56"/>
<polygon fill="grey" stroke="grey" stroke-width="2" points="731.64,-22.08 721.13,-23.4 730.17,-28.93 731.64,-22.08"/>
</g>
<!-- 14&#45;&gt;0 -->
<g id="edge7" class="edge">
<title>14&#45;&gt;0</title>
<path fill="none" stroke="grey" stroke-width="2" d="M1305.14,-143.76C1282.82,-122.78 1241.86,-88.16 1199.5,-72 1114.35,-39.5 840.55,-25.2 731.22,-20.69"/>
<polygon fill="grey" stroke="grey" stroke-width="2" points="731.29,-17.19 721.16,-20.28 731.01,-24.18 731.29,-17.19"/>
</g>
</g>
</svg>
