<?xml version="1.0" encoding="UTF-8" standalone="no"?>
<!DOCTYPE svg PUBLIC "-//W3C//DTD SVG 1.1//EN"
 "http://www.w3.org/Graphics/SVG/1.1/DTD/svg11.dtd">
<!-- Generated by graphviz version 2.43.0 (0)
 -->
<!-- Title: snakemake_dag Pages: 1 -->
<svg width="1812pt" height="764pt"
 viewBox="0.00 0.00 1812.00 764.00" xmlns="http://www.w3.org/2000/svg" xmlns:xlink="http://www.w3.org/1999/xlink">
<g id="graph0" class="graph" transform="scale(1 1) rotate(0) translate(4 760)">
<title>snakemake_dag</title>
<polygon fill="white" stroke="transparent" points="-4,4 -4,-760 1808,-760 1808,4 -4,4"/>
<!-- 0 -->
<g id="node1" class="node">
<title>0</title>
<path fill="none" stroke="#56c1d8" stroke-width="2" d="M809.5,-36C809.5,-36 762.5,-36 762.5,-36 756.5,-36 750.5,-30 750.5,-24 750.5,-24 750.5,-12 750.5,-12 750.5,-6 756.5,0 762.5,0 762.5,0 809.5,0 809.5,0 815.5,0 821.5,-6 821.5,-12 821.5,-12 821.5,-24 821.5,-24 821.5,-30 815.5,-36 809.5,-36"/>
<text text-anchor="middle" x="786" y="-15.5" font-family="sans" font-size="10.00">csv_results</text>
</g>
<!-- 1 -->
<g id="node2" class="node">
<title>1</title>
<path fill="none" stroke="#d8a456" stroke-width="2" d="M176,-216C176,-216 12,-216 12,-216 6,-216 0,-210 0,-204 0,-204 0,-192 0,-192 0,-186 6,-180 12,-180 12,-180 176,-180 176,-180 182,-180 188,-186 188,-192 188,-192 188,-204 188,-204 188,-210 182,-216 176,-216"/>
<text text-anchor="middle" x="94" y="-195.5" font-family="sans" font-size="10.00">run_logistic_regression_on_original</text>
</g>
<!-- 1&#45;&gt;0 -->
<g id="edge1" class="edge">
<title>1&#45;&gt;0</title>
<path fill="none" stroke="grey" stroke-width="2" d="M160.35,-179.93C300.05,-144 621.41,-61.34 740.51,-30.7"/>
<polygon fill="grey" stroke="grey" stroke-width="2" points="741.59,-34.04 750.4,-28.16 739.84,-27.26 741.59,-34.04"/>
</g>
<!-- 2 -->
<g id="node3" class="node">
<title>2</title>
<path fill="none" stroke="#88d856" stroke-width="2" d="M848.5,-756C848.5,-756 723.5,-756 723.5,-756 717.5,-756 711.5,-750 711.5,-744 711.5,-744 711.5,-732 711.5,-732 711.5,-726 717.5,-720 723.5,-720 723.5,-720 848.5,-720 848.5,-720 854.5,-720 860.5,-726 860.5,-732 860.5,-732 860.5,-744 860.5,-744 860.5,-750 854.5,-756 848.5,-756"/>
<text text-anchor="middle" x="786" y="-735.5" font-family="sans" font-size="10.00">generate_original_datasets</text>
</g>
<!-- 2&#45;&gt;1 -->
<g id="edge10" class="edge">
<title>2&#45;&gt;1</title>
<path fill="none" stroke="grey" stroke-width="2" d="M752.31,-719.94C699.38,-692.54 594.42,-635.71 513,-576 351.06,-457.24 179.49,-286.61 117.8,-223.6"/>
<polygon fill="grey" stroke="grey" stroke-width="2" points="119.99,-220.82 110.5,-216.11 114.98,-225.71 119.99,-220.82"/>
</g>
<!-- 5 -->
<g id="node6" class="node">
<title>5</title>
<path fill="none" stroke="#56a2d8" stroke-width="2" d="M675.5,-576C675.5,-576 534.5,-576 534.5,-576 528.5,-576 522.5,-570 522.5,-564 522.5,-564 522.5,-552 522.5,-552 522.5,-546 528.5,-540 534.5,-540 534.5,-540 675.5,-540 675.5,-540 681.5,-540 687.5,-546 687.5,-552 687.5,-552 687.5,-564 687.5,-564 687.5,-570 681.5,-576 675.5,-576"/>
<text text-anchor="middle" x="605" y="-555.5" font-family="sans" font-size="10.00">create_original_napsu_models</text>
</g>
<!-- 2&#45;&gt;5 -->
<g id="edge13" class="edge">
<title>2&#45;&gt;5</title>
<path fill="none" stroke="grey" stroke-width="2" d="M768.64,-719.93C736.35,-688.17 666.92,-619.89 629.73,-583.32"/>
<polygon fill="grey" stroke="grey" stroke-width="2" points="631.89,-580.53 622.3,-576.02 626.98,-585.52 631.89,-580.53"/>
</g>
<!-- 6 -->
<g id="node7" class="node">
<title>6</title>
<path fill="none" stroke="#d88d56" stroke-width="2" d="M854.5,-576C854.5,-576 717.5,-576 717.5,-576 711.5,-576 705.5,-570 705.5,-564 705.5,-564 705.5,-552 705.5,-552 705.5,-546 711.5,-540 717.5,-540 717.5,-540 854.5,-540 854.5,-540 860.5,-540 866.5,-546 866.5,-552 866.5,-552 866.5,-564 866.5,-564 866.5,-570 860.5,-576 854.5,-576"/>
<text text-anchor="middle" x="786" y="-555.5" font-family="sans" font-size="10.00">run_classification_on_original</text>
</g>
<!-- 2&#45;&gt;6 -->
<g id="edge14" class="edge">
<title>2&#45;&gt;6</title>
<path fill="none" stroke="grey" stroke-width="2" d="M786,-719.93C786,-688.97 786,-623.3 786,-586.13"/>
<polygon fill="grey" stroke="grey" stroke-width="2" points="789.5,-586.02 786,-576.02 782.5,-586.02 789.5,-586.02"/>
</g>
<!-- 10 -->
<g id="node11" class="node">
<title>10</title>
<path fill="none" stroke="#56d88a" stroke-width="2" d="M1051.5,-576C1051.5,-576 896.5,-576 896.5,-576 890.5,-576 884.5,-570 884.5,-564 884.5,-564 884.5,-552 884.5,-552 884.5,-546 890.5,-540 896.5,-540 896.5,-540 1051.5,-540 1051.5,-540 1057.5,-540 1063.5,-546 1063.5,-552 1063.5,-552 1063.5,-564 1063.5,-564 1063.5,-570 1057.5,-576 1051.5,-576"/>
<text text-anchor="middle" x="974" y="-555.5" font-family="sans" font-size="10.00">create_models_for_discretization</text>
</g>
<!-- 2&#45;&gt;10 -->
<g id="edge18" class="edge">
<title>2&#45;&gt;10</title>
<path fill="none" stroke="grey" stroke-width="2" d="M804.03,-719.93C837.57,-688.17 909.69,-619.89 948.32,-583.32"/>
<polygon fill="grey" stroke="grey" stroke-width="2" points="951.17,-585.43 956.03,-576.02 946.36,-580.35 951.17,-585.43"/>
</g>
<!-- 13 -->
<g id="node14" class="node">
<title>13</title>
<path fill="none" stroke="#56d873" stroke-width="2" d="M1494.5,-576C1494.5,-576 1295.5,-576 1295.5,-576 1289.5,-576 1283.5,-570 1283.5,-564 1283.5,-564 1283.5,-552 1283.5,-552 1283.5,-546 1289.5,-540 1295.5,-540 1295.5,-540 1494.5,-540 1494.5,-540 1500.5,-540 1506.5,-546 1506.5,-552 1506.5,-552 1506.5,-564 1506.5,-564 1506.5,-570 1500.5,-576 1494.5,-576"/>
<text text-anchor="middle" x="1395" y="-555.5" font-family="sans" font-size="10.00">create_models_for_independence_pruning</text>
</g>
<!-- 2&#45;&gt;13 -->
<g id="edge21" class="edge">
<title>2&#45;&gt;13</title>
<path fill="none" stroke="grey" stroke-width="2" d="M844.39,-719.93C957.62,-686.84 1206.43,-614.12 1326.93,-578.9"/>
<polygon fill="grey" stroke="grey" stroke-width="2" points="1328.17,-582.18 1336.78,-576.02 1326.2,-575.46 1328.17,-582.18"/>
</g>
<!-- 3 -->
<g id="node4" class="node">
<title>3</title>
<path fill="none" stroke="#d86e56" stroke-width="2" d="M367.5,-216C367.5,-216 218.5,-216 218.5,-216 212.5,-216 206.5,-210 206.5,-204 206.5,-204 206.5,-192 206.5,-192 206.5,-186 212.5,-180 218.5,-180 218.5,-180 367.5,-180 367.5,-180 373.5,-180 379.5,-186 379.5,-192 379.5,-192 379.5,-204 379.5,-204 379.5,-210 373.5,-216 367.5,-216"/>
<text text-anchor="middle" x="293" y="-195.5" font-family="sans" font-size="10.00">run_logistic_regression_on_synt</text>
</g>
<!-- 3&#45;&gt;0 -->
<g id="edge2" class="edge">
<title>3&#45;&gt;0</title>
<path fill="none" stroke="grey" stroke-width="2" d="M340.27,-179.93C435.24,-145.64 648.05,-68.81 741.06,-35.23"/>
<polygon fill="grey" stroke="grey" stroke-width="2" points="742.25,-38.52 750.47,-31.83 739.88,-31.93 742.25,-38.52"/>
</g>
<!-- 4 -->
<g id="node5" class="node">
<title>4</title>
<path fill="none" stroke="#56d8c1" stroke-width="2" d="M537,-396C537,-396 403,-396 403,-396 397,-396 391,-390 391,-384 391,-384 391,-372 391,-372 391,-366 397,-360 403,-360 403,-360 537,-360 537,-360 543,-360 549,-366 549,-372 549,-372 549,-384 549,-384 549,-390 543,-396 537,-396"/>
<text text-anchor="middle" x="470" y="-375.5" font-family="sans" font-size="10.00">generate_synthetic_datasets</text>
</g>
<!-- 4&#45;&gt;3 -->
<g id="edge11" class="edge">
<title>4&#45;&gt;3</title>
<path fill="none" stroke="grey" stroke-width="2" d="M453.03,-359.93C421.44,-328.17 353.55,-259.89 317.18,-223.32"/>
<polygon fill="grey" stroke="grey" stroke-width="2" points="319.45,-220.64 309.92,-216.02 314.49,-225.57 319.45,-220.64"/>
</g>
<!-- 7 -->
<g id="node8" class="node">
<title>7</title>
<path fill="none" stroke="#70d856" stroke-width="2" d="M530.5,-216C530.5,-216 409.5,-216 409.5,-216 403.5,-216 397.5,-210 397.5,-204 397.5,-204 397.5,-192 397.5,-192 397.5,-186 403.5,-180 409.5,-180 409.5,-180 530.5,-180 530.5,-180 536.5,-180 542.5,-186 542.5,-192 542.5,-192 542.5,-204 542.5,-204 542.5,-210 536.5,-216 530.5,-216"/>
<text text-anchor="middle" x="470" y="-195.5" font-family="sans" font-size="10.00">run_classification_on_synt</text>
</g>
<!-- 4&#45;&gt;7 -->
<g id="edge15" class="edge">
<title>4&#45;&gt;7</title>
<path fill="none" stroke="grey" stroke-width="2" d="M470,-359.93C470,-328.97 470,-263.3 470,-226.13"/>
<polygon fill="grey" stroke="grey" stroke-width="2" points="473.5,-226.02 470,-216.02 466.5,-226.02 473.5,-226.02"/>
</g>
<!-- 5&#45;&gt;4 -->
<g id="edge12" class="edge">
<title>5&#45;&gt;4</title>
<path fill="none" stroke="grey" stroke-width="2" d="M592.06,-539.93C568.17,-508.43 517.05,-441.03 489.14,-404.24"/>
<polygon fill="grey" stroke="grey" stroke-width="2" points="491.74,-401.87 482.91,-396.02 486.16,-406.1 491.74,-401.87"/>
</g>
<!-- 14 -->
<g id="node15" class="node">
<title>14</title>
<path fill="none" stroke="#d8bc56" stroke-width="2" d="M745.5,-216C745.5,-216 572.5,-216 572.5,-216 566.5,-216 560.5,-210 560.5,-204 560.5,-204 560.5,-192 560.5,-192 560.5,-186 566.5,-180 572.5,-180 572.5,-180 745.5,-180 745.5,-180 751.5,-180 757.5,-186 757.5,-192 757.5,-192 757.5,-204 757.5,-204 757.5,-210 751.5,-216 745.5,-216"/>
<text text-anchor="middle" x="659" y="-195.5" font-family="sans" font-size="10.00">run_ci_coverage_on_original_models</text>
</g>
<!-- 5&#45;&gt;14 -->
<g id="edge22" class="edge">
<title>5&#45;&gt;14</title>
<path fill="none" stroke="grey" stroke-width="2" d="M607.6,-539.73C616.28,-482.19 644.27,-296.66 654.87,-226.35"/>
<polygon fill="grey" stroke="grey" stroke-width="2" points="658.39,-226.5 656.42,-216.09 651.47,-225.46 658.39,-226.5"/>
</g>
<!-- 6&#45;&gt;0 -->
<g id="edge3" class="edge">
<title>6&#45;&gt;0</title>
<path fill="none" stroke="grey" stroke-width="2" d="M786,-539.71C786,-461.69 786,-142.11 786,-46.28"/>
<polygon fill="grey" stroke="grey" stroke-width="2" points="789.5,-46.23 786,-36.23 782.5,-46.23 789.5,-46.23"/>
</g>
<!-- 7&#45;&gt;0 -->
<g id="edge4" class="edge">
<title>7&#45;&gt;0</title>
<path fill="none" stroke="grey" stroke-width="2" d="M500.3,-179.93C557.87,-147.5 683,-77.02 746.83,-41.06"/>
<polygon fill="grey" stroke="grey" stroke-width="2" points="748.8,-43.97 755.79,-36.02 745.36,-37.87 748.8,-43.97"/>
</g>
<!-- 8 -->
<g id="node9" class="node">
<title>8</title>
<path fill="none" stroke="#a7d856" stroke-width="2" d="M1034,-216C1034,-216 826,-216 826,-216 820,-216 814,-210 814,-204 814,-204 814,-192 814,-192 814,-186 820,-180 826,-180 826,-180 1034,-180 1034,-180 1040,-180 1046,-186 1046,-192 1046,-192 1046,-204 1046,-204 1046,-210 1040,-216 1034,-216"/>
<text text-anchor="middle" x="930" y="-195.5" font-family="sans" font-size="10.00">run_logistic_regression_on_discretized_data</text>
</g>
<!-- 8&#45;&gt;0 -->
<g id="edge5" class="edge">
<title>8&#45;&gt;0</title>
<path fill="none" stroke="grey" stroke-width="2" d="M916.19,-179.93C890.71,-148.43 836.18,-81.03 806.42,-44.24"/>
<polygon fill="grey" stroke="grey" stroke-width="2" points="808.78,-41.59 799.77,-36.02 803.33,-45.99 808.78,-41.59"/>
</g>
<!-- 9 -->
<g id="node10" class="node">
<title>9</title>
<path fill="none" stroke="#56d8d8" stroke-width="2" d="M1014,-396C1014,-396 826,-396 826,-396 820,-396 814,-390 814,-384 814,-384 814,-372 814,-372 814,-366 820,-360 826,-360 826,-360 1014,-360 1014,-360 1020,-360 1026,-366 1026,-372 1026,-372 1026,-384 1026,-384 1026,-390 1020,-396 1014,-396"/>
<text text-anchor="middle" x="920" y="-375.5" font-family="sans" font-size="10.00">generate_datasets_for_discretized_data</text>
</g>
<!-- 9&#45;&gt;8 -->
<g id="edge16" class="edge">
<title>9&#45;&gt;8</title>
<path fill="none" stroke="grey" stroke-width="2" d="M920.96,-359.93C922.7,-328.97 926.39,-263.3 928.48,-226.13"/>
<polygon fill="grey" stroke="grey" stroke-width="2" points="931.98,-226.2 929.04,-216.02 924.99,-225.8 931.98,-226.2"/>
</g>
<!-- 10&#45;&gt;9 -->
<g id="edge17" class="edge">
<title>10&#45;&gt;9</title>
<path fill="none" stroke="grey" stroke-width="2" d="M968.82,-539.93C959.39,-508.83 939.34,-442.73 928.09,-405.65"/>
<polygon fill="grey" stroke="grey" stroke-width="2" points="931.41,-404.57 925.16,-396.02 924.72,-406.6 931.41,-404.57"/>
</g>
<!-- 15 -->
<g id="node16" class="node">
<title>15</title>
<path fill="none" stroke="#568ad8" stroke-width="2" d="M1244.5,-396C1244.5,-396 1055.5,-396 1055.5,-396 1049.5,-396 1043.5,-390 1043.5,-384 1043.5,-384 1043.5,-372 1043.5,-372 1043.5,-366 1049.5,-360 1055.5,-360 1055.5,-360 1244.5,-360 1244.5,-360 1250.5,-360 1256.5,-366 1256.5,-372 1256.5,-372 1256.5,-384 1256.5,-384 1256.5,-390 1250.5,-396 1244.5,-396"/>
<text text-anchor="middle" x="1150" y="-375.5" font-family="sans" font-size="10.00">run_ci_coverage_on_discretized_models</text>
</g>
<!-- 10&#45;&gt;15 -->
<g id="edge23" class="edge">
<title>10&#45;&gt;15</title>
<path fill="none" stroke="grey" stroke-width="2" d="M990.88,-539.93C1022.28,-508.17 1089.79,-439.89 1125.96,-403.32"/>
<polygon fill="grey" stroke="grey" stroke-width="2" points="1128.63,-405.59 1133.18,-396.02 1123.66,-400.67 1128.63,-405.59"/>
</g>
<!-- 11 -->
<g id="node12" class="node">
<title>11</title>
<path fill="none" stroke="#d85656" stroke-width="2" d="M1487.5,-216C1487.5,-216 1202.5,-216 1202.5,-216 1196.5,-216 1190.5,-210 1190.5,-204 1190.5,-204 1190.5,-192 1190.5,-192 1190.5,-186 1196.5,-180 1202.5,-180 1202.5,-180 1487.5,-180 1487.5,-180 1493.5,-180 1499.5,-186 1499.5,-192 1499.5,-192 1499.5,-204 1499.5,-204 1499.5,-210 1493.5,-216 1487.5,-216"/>
<text text-anchor="middle" x="1345" y="-195.5" font-family="sans" font-size="10.00">run_logistic_regression_on_independence_pruning_datasets</text>
</g>
<!-- 11&#45;&gt;0 -->
<g id="edge6" class="edge">
<title>11&#45;&gt;0</title>
<path fill="none" stroke="grey" stroke-width="2" d="M1291.4,-179.93C1181.78,-145.03 933.7,-66.03 831.4,-33.46"/>
<polygon fill="grey" stroke="grey" stroke-width="2" points="832.27,-30.06 821.68,-30.36 830.15,-36.73 832.27,-30.06"/>
</g>
<!-- 12 -->
<g id="node13" class="node">
<title>12</title>
<path fill="none" stroke="#d6d856" stroke-width="2" d="M1504,-396C1504,-396 1286,-396 1286,-396 1280,-396 1274,-390 1274,-384 1274,-384 1274,-372 1274,-372 1274,-366 1280,-360 1286,-360 1286,-360 1504,-360 1504,-360 1510,-360 1516,-366 1516,-372 1516,-372 1516,-384 1516,-384 1516,-390 1510,-396 1504,-396"/>
<text text-anchor="middle" x="1395" y="-375.5" font-family="sans" font-size="10.00">generate_datasets_for_independence_pruning</text>
</g>
<!-- 12&#45;&gt;11 -->
<g id="edge19" class="edge">
<title>12&#45;&gt;11</title>
<path fill="none" stroke="grey" stroke-width="2" d="M1390.21,-359.93C1381.47,-328.83 1362.9,-262.73 1352.49,-225.65"/>
<polygon fill="grey" stroke="grey" stroke-width="2" points="1355.85,-224.7 1349.78,-216.02 1349.11,-226.59 1355.85,-224.7"/>
</g>
<!-- 13&#45;&gt;12 -->
<g id="edge20" class="edge">
<title>13&#45;&gt;12</title>
<path fill="none" stroke="grey" stroke-width="2" d="M1395,-539.93C1395,-508.97 1395,-443.3 1395,-406.13"/>
<polygon fill="grey" stroke="grey" stroke-width="2" points="1398.5,-406.02 1395,-396.02 1391.5,-406.02 1398.5,-406.02"/>
</g>
<!-- 16 -->
<g id="node17" class="node">
<title>16</title>
<path fill="none" stroke="#bed856" stroke-width="2" d="M1792,-396C1792,-396 1546,-396 1546,-396 1540,-396 1534,-390 1534,-384 1534,-384 1534,-372 1534,-372 1534,-366 1540,-360 1546,-360 1546,-360 1792,-360 1792,-360 1798,-360 1804,-366 1804,-372 1804,-372 1804,-384 1804,-384 1804,-390 1798,-396 1792,-396"/>
<text text-anchor="middle" x="1669" y="-375.5" font-family="sans" font-size="10.00">run_ci_coverage_on_independence_pruning_models</text>
</g>
<!-- 13&#45;&gt;16 -->
<g id="edge24" class="edge">
<title>13&#45;&gt;16</title>
<path fill="none" stroke="grey" stroke-width="2" d="M1421.27,-539.93C1470.99,-507.64 1578.8,-437.6 1634.36,-401.51"/>
<polygon fill="grey" stroke="grey" stroke-width="2" points="1636.33,-404.4 1642.81,-396.02 1632.51,-398.53 1636.33,-404.4"/>
</g>
<!-- 14&#45;&gt;0 -->
<g id="edge7" class="edge">
<title>14&#45;&gt;0</title>
<path fill="none" stroke="grey" stroke-width="2" d="M671.18,-179.93C693.65,-148.43 741.74,-81.03 767.99,-44.24"/>
<polygon fill="grey" stroke="grey" stroke-width="2" points="770.9,-46.19 773.86,-36.02 765.2,-42.12 770.9,-46.19"/>
</g>
<!-- 15&#45;&gt;0 -->
<g id="edge8" class="edge">
<title>15&#45;&gt;0</title>
<path fill="none" stroke="grey" stroke-width="2" d="M1145.39,-359.79C1134.81,-322.99 1105.72,-235.5 1055,-180 991.01,-109.97 889.46,-60.67 831.16,-36.33"/>
<polygon fill="grey" stroke="grey" stroke-width="2" points="832.41,-33.06 821.83,-32.5 829.75,-39.54 832.41,-33.06"/>
</g>
<!-- 16&#45;&gt;0 -->
<g id="edge9" class="edge">
<title>16&#45;&gt;0</title>
<path fill="none" stroke="grey" stroke-width="2" d="M1660.21,-359.79C1639.44,-320.99 1583.38,-226.48 1508,-180 1282.77,-41.13 952.42,-21.51 832.04,-19.14"/>
<polygon fill="grey" stroke="grey" stroke-width="2" points="831.78,-15.63 821.72,-18.96 831.66,-22.63 831.78,-15.63"/>
</g>
</g>
</svg>
