<?xml version="1.0" encoding="UTF-8" standalone="no"?>
<!DOCTYPE svg PUBLIC "-//W3C//DTD SVG 1.1//EN"
 "http://www.w3.org/Graphics/SVG/1.1/DTD/svg11.dtd">
<!-- Generated by graphviz version 2.43.0 (0)
 -->
<!-- Title: snakemake_dag Pages: 1 -->
<svg width="1812pt" height="332pt"
 viewBox="0.00 0.00 1812.00 332.00" xmlns="http://www.w3.org/2000/svg" xmlns:xlink="http://www.w3.org/1999/xlink">
<g id="graph0" class="graph" transform="scale(1 1) rotate(0) translate(4 328)">
<title>snakemake_dag</title>
<polygon fill="white" stroke="transparent" points="-4,4 -4,-328 1808,-328 1808,4 -4,4"/>
<!-- 0 -->
<g id="node1" class="node">
<title>0</title>
<path fill="none" stroke="#5673d8" stroke-width="2" d="M809.5,-36C809.5,-36 762.5,-36 762.5,-36 756.5,-36 750.5,-30 750.5,-24 750.5,-24 750.5,-12 750.5,-12 750.5,-6 756.5,0 762.5,0 762.5,0 809.5,0 809.5,0 815.5,0 821.5,-6 821.5,-12 821.5,-12 821.5,-24 821.5,-24 821.5,-30 815.5,-36 809.5,-36"/>
<text text-anchor="middle" x="786" y="-15.5" font-family="sans" font-size="10.00">csv_results</text>
</g>
<!-- 1 -->
<g id="node2" class="node">
<title>1</title>
<path fill="none" stroke="#56d8c1" stroke-width="2" d="M176,-108C176,-108 12,-108 12,-108 6,-108 0,-102 0,-96 0,-96 0,-84 0,-84 0,-78 6,-72 12,-72 12,-72 176,-72 176,-72 182,-72 188,-78 188,-84 188,-84 188,-96 188,-96 188,-102 182,-108 176,-108"/>
<text text-anchor="middle" x="94" y="-87.5" font-family="sans" font-size="10.00">run_logistic_regression_on_original</text>
</g>
<!-- 1&#45;&gt;0 -->
<g id="edge9" class="edge">
<title>1&#45;&gt;0</title>
<path fill="none" stroke="grey" stroke-width="2" d="M188.26,-73.16C191.2,-72.75 194.12,-72.37 197,-72 398.69,-46.32 640.8,-28.65 740.1,-21.97"/>
<polygon fill="grey" stroke="grey" stroke-width="2" points="740.64,-25.44 750.38,-21.28 740.17,-18.46 740.64,-25.44"/>
</g>
<!-- 2 -->
<g id="node3" class="node">
<title>2</title>
<path fill="none" stroke="#568ad8" stroke-width="2" d="M848.5,-324C848.5,-324 723.5,-324 723.5,-324 717.5,-324 711.5,-318 711.5,-312 711.5,-312 711.5,-300 711.5,-300 711.5,-294 717.5,-288 723.5,-288 723.5,-288 848.5,-288 848.5,-288 854.5,-288 860.5,-294 860.5,-300 860.5,-300 860.5,-312 860.5,-312 860.5,-318 854.5,-324 848.5,-324"/>
<text text-anchor="middle" x="786" y="-303.5" font-family="sans" font-size="10.00">generate_original_datasets</text>
</g>
<!-- 2&#45;&gt;1 -->
<g id="edge10" class="edge">
<title>2&#45;&gt;1</title>
<path fill="none" stroke="grey" stroke-width="2" d="M711.3,-294.12C655.96,-285.19 579.02,-270.93 513,-252 374.54,-212.29 217.58,-145.99 141.03,-112.2"/>
<polygon fill="grey" stroke="grey" stroke-width="2" points="142.21,-108.89 131.65,-108.04 139.38,-115.29 142.21,-108.89"/>
</g>
<!-- 5 -->
<g id="node6" class="node">
<title>5</title>
<path fill="none" stroke="#56d873" stroke-width="2" d="M675.5,-252C675.5,-252 534.5,-252 534.5,-252 528.5,-252 522.5,-246 522.5,-240 522.5,-240 522.5,-228 522.5,-228 522.5,-222 528.5,-216 534.5,-216 534.5,-216 675.5,-216 675.5,-216 681.5,-216 687.5,-222 687.5,-228 687.5,-228 687.5,-240 687.5,-240 687.5,-246 681.5,-252 675.5,-252"/>
<text text-anchor="middle" x="605" y="-231.5" font-family="sans" font-size="10.00">create_original_napsu_models</text>
</g>
<!-- 2&#45;&gt;5 -->
<g id="edge13" class="edge">
<title>2&#45;&gt;5</title>
<path fill="none" stroke="grey" stroke-width="2" d="M741.72,-287.88C716.65,-278.18 685.1,-265.98 658.63,-255.74"/>
<polygon fill="grey" stroke="grey" stroke-width="2" points="659.72,-252.41 649.13,-252.07 657.2,-258.94 659.72,-252.41"/>
</g>
<!-- 6 -->
<g id="node7" class="node">
<title>6</title>
<path fill="none" stroke="#bed856" stroke-width="2" d="M854.5,-252C854.5,-252 717.5,-252 717.5,-252 711.5,-252 705.5,-246 705.5,-240 705.5,-240 705.5,-228 705.5,-228 705.5,-222 711.5,-216 717.5,-216 717.5,-216 854.5,-216 854.5,-216 860.5,-216 866.5,-222 866.5,-228 866.5,-228 866.5,-240 866.5,-240 866.5,-246 860.5,-252 854.5,-252"/>
<text text-anchor="middle" x="786" y="-231.5" font-family="sans" font-size="10.00">run_classification_on_original</text>
</g>
<!-- 2&#45;&gt;6 -->
<g id="edge14" class="edge">
<title>2&#45;&gt;6</title>
<path fill="none" stroke="grey" stroke-width="2" d="M786,-287.7C786,-279.98 786,-270.71 786,-262.11"/>
<polygon fill="grey" stroke="grey" stroke-width="2" points="789.5,-262.1 786,-252.1 782.5,-262.1 789.5,-262.1"/>
</g>
<!-- 10 -->
<g id="node11" class="node">
<title>10</title>
<path fill="none" stroke="#88d856" stroke-width="2" d="M1051.5,-252C1051.5,-252 896.5,-252 896.5,-252 890.5,-252 884.5,-246 884.5,-240 884.5,-240 884.5,-228 884.5,-228 884.5,-222 890.5,-216 896.5,-216 896.5,-216 1051.5,-216 1051.5,-216 1057.5,-216 1063.5,-222 1063.5,-228 1063.5,-228 1063.5,-240 1063.5,-240 1063.5,-246 1057.5,-252 1051.5,-252"/>
<text text-anchor="middle" x="974" y="-231.5" font-family="sans" font-size="10.00">create_models_for_discretization</text>
</g>
<!-- 2&#45;&gt;10 -->
<g id="edge18" class="edge">
<title>2&#45;&gt;10</title>
<path fill="none" stroke="grey" stroke-width="2" d="M831.99,-287.88C858.15,-278.14 891.09,-265.87 918.65,-255.61"/>
<polygon fill="grey" stroke="grey" stroke-width="2" points="920.01,-258.84 928.16,-252.07 917.57,-252.28 920.01,-258.84"/>
</g>
<!-- 13 -->
<g id="node14" class="node">
<title>13</title>
<path fill="none" stroke="#d8a456" stroke-width="2" d="M1494.5,-252C1494.5,-252 1295.5,-252 1295.5,-252 1289.5,-252 1283.5,-246 1283.5,-240 1283.5,-240 1283.5,-228 1283.5,-228 1283.5,-222 1289.5,-216 1295.5,-216 1295.5,-216 1494.5,-216 1494.5,-216 1500.5,-216 1506.5,-222 1506.5,-228 1506.5,-228 1506.5,-240 1506.5,-240 1506.5,-246 1500.5,-252 1494.5,-252"/>
<text text-anchor="middle" x="1395" y="-231.5" font-family="sans" font-size="10.00">create_models_for_independence_pruning</text>
</g>
<!-- 2&#45;&gt;13 -->
<g id="edge21" class="edge">
<title>2&#45;&gt;13</title>
<path fill="none" stroke="grey" stroke-width="2" d="M860.68,-296.42C963.47,-284.6 1149.82,-263.18 1273.01,-249.02"/>
<polygon fill="grey" stroke="grey" stroke-width="2" points="1273.71,-252.46 1283.24,-247.85 1272.91,-245.51 1273.71,-252.46"/>
</g>
<!-- 3 -->
<g id="node4" class="node">
<title>3</title>
<path fill="none" stroke="#d8bc56" stroke-width="2" d="M367.5,-108C367.5,-108 218.5,-108 218.5,-108 212.5,-108 206.5,-102 206.5,-96 206.5,-96 206.5,-84 206.5,-84 206.5,-78 212.5,-72 218.5,-72 218.5,-72 367.5,-72 367.5,-72 373.5,-72 379.5,-78 379.5,-84 379.5,-84 379.5,-96 379.5,-96 379.5,-102 373.5,-108 367.5,-108"/>
<text text-anchor="middle" x="293" y="-87.5" font-family="sans" font-size="10.00">run_logistic_regression_on_synt</text>
</g>
<!-- 3&#45;&gt;0 -->
<g id="edge1" class="edge">
<title>3&#45;&gt;0</title>
<path fill="none" stroke="grey" stroke-width="2" d="M379.69,-73.32C382.49,-72.87 385.27,-72.43 388,-72 515.29,-52.15 666.21,-33.34 740.31,-24.41"/>
<polygon fill="grey" stroke="grey" stroke-width="2" points="740.73,-27.88 750.25,-23.22 739.9,-20.93 740.73,-27.88"/>
</g>
<!-- 4 -->
<g id="node5" class="node">
<title>4</title>
<path fill="none" stroke="#56c1d8" stroke-width="2" d="M537,-180C537,-180 403,-180 403,-180 397,-180 391,-174 391,-168 391,-168 391,-156 391,-156 391,-150 397,-144 403,-144 403,-144 537,-144 537,-144 543,-144 549,-150 549,-156 549,-156 549,-168 549,-168 549,-174 543,-180 537,-180"/>
<text text-anchor="middle" x="470" y="-159.5" font-family="sans" font-size="10.00">generate_synthetic_datasets</text>
</g>
<!-- 4&#45;&gt;3 -->
<g id="edge11" class="edge">
<title>4&#45;&gt;3</title>
<path fill="none" stroke="grey" stroke-width="2" d="M426.7,-143.88C402.29,-134.22 371.6,-122.09 345.79,-111.88"/>
<polygon fill="grey" stroke="grey" stroke-width="2" points="346.74,-108.49 336.16,-108.07 344.17,-115 346.74,-108.49"/>
</g>
<!-- 7 -->
<g id="node8" class="node">
<title>7</title>
<path fill="none" stroke="#d88d56" stroke-width="2" d="M530.5,-108C530.5,-108 409.5,-108 409.5,-108 403.5,-108 397.5,-102 397.5,-96 397.5,-96 397.5,-84 397.5,-84 397.5,-78 403.5,-72 409.5,-72 409.5,-72 530.5,-72 530.5,-72 536.5,-72 542.5,-78 542.5,-84 542.5,-84 542.5,-96 542.5,-96 542.5,-102 536.5,-108 530.5,-108"/>
<text text-anchor="middle" x="470" y="-87.5" font-family="sans" font-size="10.00">run_classification_on_synt</text>
</g>
<!-- 4&#45;&gt;7 -->
<g id="edge15" class="edge">
<title>4&#45;&gt;7</title>
<path fill="none" stroke="grey" stroke-width="2" d="M470,-143.7C470,-135.98 470,-126.71 470,-118.11"/>
<polygon fill="grey" stroke="grey" stroke-width="2" points="473.5,-118.1 470,-108.1 466.5,-118.1 473.5,-118.1"/>
</g>
<!-- 5&#45;&gt;4 -->
<g id="edge12" class="edge">
<title>5&#45;&gt;4</title>
<path fill="none" stroke="grey" stroke-width="2" d="M571.98,-215.88C553.92,-206.51 531.35,-194.81 512.05,-184.8"/>
<polygon fill="grey" stroke="grey" stroke-width="2" points="513.64,-181.69 503.15,-180.19 510.42,-187.9 513.64,-181.69"/>
</g>
<!-- 14 -->
<g id="node15" class="node">
<title>14</title>
<path fill="none" stroke="#d6d856" stroke-width="2" d="M745.5,-108C745.5,-108 572.5,-108 572.5,-108 566.5,-108 560.5,-102 560.5,-96 560.5,-96 560.5,-84 560.5,-84 560.5,-78 566.5,-72 572.5,-72 572.5,-72 745.5,-72 745.5,-72 751.5,-72 757.5,-78 757.5,-84 757.5,-84 757.5,-96 757.5,-96 757.5,-102 751.5,-108 745.5,-108"/>
<text text-anchor="middle" x="659" y="-87.5" font-family="sans" font-size="10.00">run_ci_coverage_on_original_models</text>
</g>
<!-- 5&#45;&gt;14 -->
<g id="edge22" class="edge">
<title>5&#45;&gt;14</title>
<path fill="none" stroke="grey" stroke-width="2" d="M611.51,-215.87C620.8,-191.46 637.92,-146.43 648.87,-117.64"/>
<polygon fill="grey" stroke="grey" stroke-width="2" points="652.18,-118.78 652.46,-108.19 645.64,-116.29 652.18,-118.78"/>
</g>
<!-- 6&#45;&gt;0 -->
<g id="edge6" class="edge">
<title>6&#45;&gt;0</title>
<path fill="none" stroke="grey" stroke-width="2" d="M786,-215.85C786,-178.83 786,-91.18 786,-46.39"/>
<polygon fill="grey" stroke="grey" stroke-width="2" points="789.5,-46.23 786,-36.23 782.5,-46.23 789.5,-46.23"/>
</g>
<!-- 7&#45;&gt;0 -->
<g id="edge5" class="edge">
<title>7&#45;&gt;0</title>
<path fill="none" stroke="grey" stroke-width="2" d="M542.89,-72.85C603.73,-59.38 688.55,-40.59 740.24,-29.14"/>
<polygon fill="grey" stroke="grey" stroke-width="2" points="741.11,-32.53 750.12,-26.95 739.6,-25.69 741.11,-32.53"/>
</g>
<!-- 8 -->
<g id="node9" class="node">
<title>8</title>
<path fill="none" stroke="#56d8d8" stroke-width="2" d="M1034,-108C1034,-108 826,-108 826,-108 820,-108 814,-102 814,-96 814,-96 814,-84 814,-84 814,-78 820,-72 826,-72 826,-72 1034,-72 1034,-72 1040,-72 1046,-78 1046,-84 1046,-84 1046,-96 1046,-96 1046,-102 1040,-108 1034,-108"/>
<text text-anchor="middle" x="930" y="-87.5" font-family="sans" font-size="10.00">run_logistic_regression_on_discretized_data</text>
</g>
<!-- 8&#45;&gt;0 -->
<g id="edge2" class="edge">
<title>8&#45;&gt;0</title>
<path fill="none" stroke="grey" stroke-width="2" d="M894.77,-71.88C875.42,-62.47 851.23,-50.71 830.57,-40.67"/>
<polygon fill="grey" stroke="grey" stroke-width="2" points="831.89,-37.41 821.36,-36.19 828.83,-43.71 831.89,-37.41"/>
</g>
<!-- 9 -->
<g id="node10" class="node">
<title>9</title>
<path fill="none" stroke="#a7d856" stroke-width="2" d="M1014,-180C1014,-180 826,-180 826,-180 820,-180 814,-174 814,-168 814,-168 814,-156 814,-156 814,-150 820,-144 826,-144 826,-144 1014,-144 1014,-144 1020,-144 1026,-150 1026,-156 1026,-156 1026,-168 1026,-168 1026,-174 1020,-180 1014,-180"/>
<text text-anchor="middle" x="920" y="-159.5" font-family="sans" font-size="10.00">generate_datasets_for_discretized_data</text>
</g>
<!-- 9&#45;&gt;8 -->
<g id="edge16" class="edge">
<title>9&#45;&gt;8</title>
<path fill="none" stroke="grey" stroke-width="2" d="M922.47,-143.7C923.57,-135.98 924.9,-126.71 926.13,-118.11"/>
<polygon fill="grey" stroke="grey" stroke-width="2" points="929.61,-118.5 927.56,-108.1 922.68,-117.51 929.61,-118.5"/>
</g>
<!-- 10&#45;&gt;9 -->
<g id="edge17" class="edge">
<title>10&#45;&gt;9</title>
<path fill="none" stroke="grey" stroke-width="2" d="M960.65,-215.7C954.24,-207.39 946.44,-197.28 939.39,-188.14"/>
<polygon fill="grey" stroke="grey" stroke-width="2" points="942.07,-185.88 933.19,-180.1 936.53,-190.16 942.07,-185.88"/>
</g>
<!-- 15 -->
<g id="node16" class="node">
<title>15</title>
<path fill="none" stroke="#56d88a" stroke-width="2" d="M1244.5,-180C1244.5,-180 1055.5,-180 1055.5,-180 1049.5,-180 1043.5,-174 1043.5,-168 1043.5,-168 1043.5,-156 1043.5,-156 1043.5,-150 1049.5,-144 1055.5,-144 1055.5,-144 1244.5,-144 1244.5,-144 1250.5,-144 1256.5,-150 1256.5,-156 1256.5,-156 1256.5,-168 1256.5,-168 1256.5,-174 1250.5,-180 1244.5,-180"/>
<text text-anchor="middle" x="1150" y="-159.5" font-family="sans" font-size="10.00">run_ci_coverage_on_discretized_models</text>
</g>
<!-- 10&#45;&gt;15 -->
<g id="edge23" class="edge">
<title>10&#45;&gt;15</title>
<path fill="none" stroke="grey" stroke-width="2" d="M1017.05,-215.88C1041.33,-206.22 1071.84,-194.09 1097.51,-183.88"/>
<polygon fill="grey" stroke="grey" stroke-width="2" points="1099.09,-187.02 1107.09,-180.07 1096.5,-180.51 1099.09,-187.02"/>
</g>
<!-- 11 -->
<g id="node12" class="node">
<title>11</title>
<path fill="none" stroke="#56d8a2" stroke-width="2" d="M1487.5,-108C1487.5,-108 1202.5,-108 1202.5,-108 1196.5,-108 1190.5,-102 1190.5,-96 1190.5,-96 1190.5,-84 1190.5,-84 1190.5,-78 1196.5,-72 1202.5,-72 1202.5,-72 1487.5,-72 1487.5,-72 1493.5,-72 1499.5,-78 1499.5,-84 1499.5,-84 1499.5,-96 1499.5,-96 1499.5,-102 1493.5,-108 1487.5,-108"/>
<text text-anchor="middle" x="1345" y="-87.5" font-family="sans" font-size="10.00">run_logistic_regression_on_independence_pruning_datasets</text>
</g>
<!-- 11&#45;&gt;0 -->
<g id="edge8" class="edge">
<title>11&#45;&gt;0</title>
<path fill="none" stroke="grey" stroke-width="2" d="M1208.97,-71.97C1086.24,-56.6 912.88,-34.89 831.51,-24.7"/>
<polygon fill="grey" stroke="grey" stroke-width="2" points="831.95,-21.23 821.59,-23.46 831.08,-28.17 831.95,-21.23"/>
</g>
<!-- 12 -->
<g id="node13" class="node">
<title>12</title>
<path fill="none" stroke="#59d856" stroke-width="2" d="M1504,-180C1504,-180 1286,-180 1286,-180 1280,-180 1274,-174 1274,-168 1274,-168 1274,-156 1274,-156 1274,-150 1280,-144 1286,-144 1286,-144 1504,-144 1504,-144 1510,-144 1516,-150 1516,-156 1516,-156 1516,-168 1516,-168 1516,-174 1510,-180 1504,-180"/>
<text text-anchor="middle" x="1395" y="-159.5" font-family="sans" font-size="10.00">generate_datasets_for_independence_pruning</text>
</g>
<!-- 12&#45;&gt;11 -->
<g id="edge19" class="edge">
<title>12&#45;&gt;11</title>
<path fill="none" stroke="grey" stroke-width="2" d="M1382.64,-143.7C1376.77,-135.47 1369.63,-125.48 1363.16,-116.42"/>
<polygon fill="grey" stroke="grey" stroke-width="2" points="1365.88,-114.21 1357.22,-108.1 1360.18,-118.28 1365.88,-114.21"/>
</g>
<!-- 13&#45;&gt;12 -->
<g id="edge20" class="edge">
<title>13&#45;&gt;12</title>
<path fill="none" stroke="grey" stroke-width="2" d="M1395,-215.7C1395,-207.98 1395,-198.71 1395,-190.11"/>
<polygon fill="grey" stroke="grey" stroke-width="2" points="1398.5,-190.1 1395,-180.1 1391.5,-190.1 1398.5,-190.1"/>
</g>
<!-- 16 -->
<g id="node17" class="node">
<title>16</title>
<path fill="none" stroke="#70d856" stroke-width="2" d="M1792,-180C1792,-180 1546,-180 1546,-180 1540,-180 1534,-174 1534,-168 1534,-168 1534,-156 1534,-156 1534,-150 1540,-144 1546,-144 1546,-144 1792,-144 1792,-144 1798,-144 1804,-150 1804,-156 1804,-156 1804,-168 1804,-168 1804,-174 1798,-180 1792,-180"/>
<text text-anchor="middle" x="1669" y="-159.5" font-family="sans" font-size="10.00">run_ci_coverage_on_independence_pruning_models</text>
</g>
<!-- 13&#45;&gt;16 -->
<g id="edge24" class="edge">
<title>13&#45;&gt;16</title>
<path fill="none" stroke="grey" stroke-width="2" d="M1461.68,-215.97C1501.13,-205.89 1551.25,-193.08 1592.33,-182.59"/>
<polygon fill="grey" stroke="grey" stroke-width="2" points="1593.2,-185.98 1602.02,-180.11 1591.47,-179.2 1593.2,-185.98"/>
</g>
<!-- 14&#45;&gt;0 -->
<g id="edge3" class="edge">
<title>14&#45;&gt;0</title>
<path fill="none" stroke="grey" stroke-width="2" d="M690.07,-71.88C706.83,-62.64 727.71,-51.13 745.7,-41.21"/>
<polygon fill="grey" stroke="grey" stroke-width="2" points="747.74,-44.08 754.81,-36.19 744.37,-37.95 747.74,-44.08"/>
</g>
<!-- 15&#45;&gt;0 -->
<g id="edge7" class="edge">
<title>15&#45;&gt;0</title>
<path fill="none" stroke="grey" stroke-width="2" d="M1136.91,-143.91C1120.23,-123.42 1089.39,-89.63 1055,-72 982.77,-34.98 887.42,-23.76 831.8,-20.4"/>
<polygon fill="grey" stroke="grey" stroke-width="2" points="831.73,-16.89 821.55,-19.84 831.35,-23.88 831.73,-16.89"/>
</g>
<!-- 16&#45;&gt;0 -->
<g id="edge4" class="edge">
<title>16&#45;&gt;0</title>
<path fill="none" stroke="grey" stroke-width="2" d="M1645.9,-143.97C1615.87,-122.86 1560.96,-87.75 1508,-72 1380.46,-34.06 970,-22.62 831.86,-19.8"/>
<polygon fill="grey" stroke="grey" stroke-width="2" points="831.69,-16.3 821.62,-19.6 831.55,-23.3 831.69,-16.3"/>
</g>
</g>
</svg>
